# xmcd CD database file
#
# Track frame offsets:
#	150
#	28763
#	53164
#	80997
#	110855
#	136041
#	159783
#	193811
#	223809
#
# Disc length: 3374 seconds
#
# Revision: 0
# Processed by: cddbd v1.5.2PL0 Copyright (c) Steve Scherf et al.
# Submitted via: jetAudio 7
#
DISCID=810d2c09
DTITLE=新疆音樂  - 西域隨想
DYEAR=1900
DGENRE=장르 없음
TTITLE0=薩瓦爾狂歡夜
TTITLE1=神秘湖
TTITLE2=幽谷之夢
TTITLE3=熱瓦普舞
TTITLE4=新疆隨想曲
TTITLE5=克什維爾的心願
TTITLE6=天山脚下的篝火
TTITLE7=白莲花
TTITLE8=美麗的家園
EXTD=
EXTT0=
EXTT1=
EXTT2=
EXTT3=
EXTT4=
EXTT5=
EXTT6=
EXTT7=
EXTT8=
PLAYORDER=
